<svg id="visual" viewBox="0 0 960 540" width="960" height="540" xmlns="http://www.w3.org/2000/svg" xmlns:xlink="http://www.w3.org/1999/xlink" version="1.1"><path d="M0 73L22.8 70.5C45.7 68 91.3 63 137 60C182.7 57 228.3 56 274 55.5C319.7 55 365.3 55 411.2 59.7C457 64.3 503 73.7 548.8 78.2C594.7 82.7 640.3 82.3 686 79.5C731.7 76.7 777.3 71.3 823 72C868.7 72.7 914.3 79.3 937.2 82.7L960 86L960 0L937.2 0C914.3 0 868.7 0 823 0C777.3 0 731.7 0 686 0C640.3 0 594.7 0 548.8 0C503 0 457 0 411.2 0C365.3 0 319.7 0 274 0C228.3 0 182.7 0 137 0C91.3 0 45.7 0 22.8 0L0 0Z" fill="#2f4858"></path><path d="M0 59L22.8 55.3C45.7 51.7 91.3 44.3 137 41.3C182.7 38.3 228.3 39.7 274 43.8C319.7 48 365.3 55 411.2 57.3C457 59.7 503 57.3 548.8 52.8C594.7 48.3 640.3 41.7 686 40.2C731.7 38.7 777.3 42.3 823 44.3C868.7 46.3 914.3 46.7 937.2 46.8L960 47L960 0L937.2 0C914.3 0 868.7 0 823 0C777.3 0 731.7 0 686 0C640.3 0 594.7 0 548.8 0C503 0 457 0 411.2 0C365.3 0 319.7 0 274 0C228.3 0 182.7 0 137 0C91.3 0 45.7 0 22.8 0L0 0Z" fill="#375663"></path><path d="M0 25L22.8 26.7C45.7 28.3 91.3 31.7 137 33.7C182.7 35.7 228.3 36.3 274 33.8C319.7 31.3 365.3 25.7 411.2 24.8C457 24 503 28 548.8 29.3C594.7 30.7 640.3 29.3 686 28.8C731.7 28.3 777.3 28.7 823 29.7C868.7 30.7 914.3 32.3 937.2 33.2L960 34L960 0L937.2 0C914.3 0 868.7 0 823 0C777.3 0 731.7 0 686 0C640.3 0 594.7 0 548.8 0C503 0 457 0 411.2 0C365.3 0 319.7 0 274 0C228.3 0 182.7 0 137 0C91.3 0 45.7 0 22.8 0L0 0Z" fill="#41656c"></path></svg>