<svg id="visual" viewBox="0 0 960 540" width="960" height="540" xmlns="http://www.w3.org/2000/svg" xmlns:xlink="http://www.w3.org/1999/xlink" version="1.1"><path d="M0 109L22.8 105.5C45.7 102 91.3 95 137 90.7C182.7 86.3 228.3 84.7 274 84C319.7 83.3 365.3 83.7 411.2 90.7C457 97.7 503 111.3 548.8 117.8C594.7 124.3 640.3 123.7 686 119.3C731.7 115 777.3 107 823 108C868.7 109 914.3 119 937.2 124L960 129L960 0L937.2 0C914.3 0 868.7 0 823 0C777.3 0 731.7 0 686 0C640.3 0 594.7 0 548.8 0C503 0 457 0 411.2 0C365.3 0 319.7 0 274 0C228.3 0 182.7 0 137 0C91.3 0 45.7 0 22.8 0L0 0Z" fill="#2f4858"></path><path d="M0 89L22.8 83.7C45.7 78.3 91.3 67.7 137 63.2C182.7 58.7 228.3 60.3 274 66.3C319.7 72.3 365.3 82.7 411.2 86C457 89.3 503 85.7 548.8 79C594.7 72.3 640.3 62.7 686 60.5C731.7 58.3 777.3 63.7 823 66.8C868.7 70 914.3 71 937.2 71.5L960 72L960 0L937.2 0C914.3 0 868.7 0 823 0C777.3 0 731.7 0 686 0C640.3 0 594.7 0 548.8 0C503 0 457 0 411.2 0C365.3 0 319.7 0 274 0C228.3 0 182.7 0 137 0C91.3 0 45.7 0 22.8 0L0 0Z" fill="#375663"></path><path d="M0 38L22.8 40.5C45.7 43 91.3 48 137 51C182.7 54 228.3 55 274 51.2C319.7 47.3 365.3 38.7 411.2 37.3C457 36 503 42 548.8 44.2C594.7 46.3 640.3 44.7 686 44C731.7 43.3 777.3 43.7 823 45C868.7 46.3 914.3 48.7 937.2 49.8L960 51L960 0L937.2 0C914.3 0 868.7 0 823 0C777.3 0 731.7 0 686 0C640.3 0 594.7 0 548.8 0C503 0 457 0 411.2 0C365.3 0 319.7 0 274 0C228.3 0 182.7 0 137 0C91.3 0 45.7 0 22.8 0L0 0Z" fill="#41656c"></path></svg>