<?xml version="1.0" encoding="UTF-8"?>
<!DOCTYPE svg PUBLIC "-//W3C//DTD SVG 1.1//EN" "http://www.w3.org/Graphics/SVG/1.1/DTD/svg11.dtd">
<svg version="1.1" xmlns="http://www.w3.org/2000/svg" xmlns:xlink="http://www.w3.org/1999/xlink" x="0" y="0" width="430" height="442" viewBox="0, 0, 430, 442">
  <g id="Layer_1">
    <path d="M264.298,439.184 C354.472,439.184 428.018,429.202 428.018,416.962 C428.018,404.721 354.472,394.739 264.298,394.739 C174.124,394.739 100.579,404.721 100.579,416.962 C100.579,429.202 174.124,439.184 264.298,439.184" fill="#CEE1B6"/>
    <path d="M172.299,226.944 C222.449,299.521 207.704,359.435 158.674,412.658 C201.304,412.658 243.936,412.658 286.564,412.658 C210.979,373.41 210.979,302.551 268.424,207.669 L249.833,211.397 C249.678,213.151 249.489,214.932 249.265,216.74 C246.07,242.536 237.085,263.451 229.196,263.451 C221.357,263.451 217.551,242.814 220.634,217.253 L207.967,219.792 C210.442,225.696 212.511,233.732 213.608,242.589 C215.854,260.714 213.179,275.408 207.637,275.408 C202.092,275.408 195.779,260.714 193.535,242.589 C192.612,235.143 192.521,228.278 193.118,222.77 L172.299,226.944" fill="#55321D"/>
    <g>
      <path d="M242.574,412.658 L286.564,412.658 C211.814,373.844 210.996,304.109 266.549,210.802 C259.993,213.917 253.82,218.42 248.175,224.103 C244.335,246.401 236.319,263.451 229.196,263.451 C227.649,263.451 226.26,262.643 225.049,261.158 C218.188,278.726 214.229,299.387 214.229,321.502 C214.229,358.531 225.322,391.491 242.574,412.658" fill="#3D281B"/>
      <path d="M262.408,223.761 C278.965,221.064 289.336,240.283 316.377,230.122 C332.406,224.099 345.016,231.803 366.264,236.083 C400.562,242.991 431.286,248.149 424.547,210.557 C417.512,171.318 433.871,169.131 395.521,135.324 C381.597,123.049 368.776,108.898 358.101,94.897 C342.632,74.61 305.452,64.927 280.639,66.39 C237.776,68.916 184.04,35.954 174.412,35.188 C130.949,31.728 104.717,100.413 96.563,117.391 C85.628,140.159 28.531,161.299 28.017,181.428 C27.439,204.091 6.109,237.639 33.745,266.533 C62.763,296.874 86.385,263.674 124.085,256.193 C156.848,249.693 150.982,260.293 186.826,254.146 C202.718,251.421 206.535,233.603 250.216,226.701 C253.688,226.152 260.319,224.1 262.408,223.761" fill="#4B7F3D"/>
    </g>
    <path d="M268.251,221.877 C267.479,230.354 271.075,236.085 279.594,238.727 C279.669,229.475 275.737,224 268.251,221.877" fill="#4B7F3D"/>
    <path d="M269.225,221.886 C263.374,225.698 261.511,230.928 264.14,237.756 C270.137,233.1 271.663,227.785 269.225,221.886" fill="#4B7F3D"/>
    <path d="M26.382,237.809 C15.559,234.591 7.162,237.772 1.5,248.161 C13.516,250.677 21.665,246.993 26.382,237.809" fill="#4B7F3D"/>
    <path d="M26.117,239.073 C22.687,230.468 16.369,226.678 6.801,228.315 C11.292,237.331 17.806,240.706 26.117,239.073" fill="#4B7F3D"/>
    <path d="M24.747,238.578 C16.363,246.141 14.705,254.965 20.625,265.209 C29.029,256.263 30.13,247.389 24.747,238.578" fill="#4B7F3D"/>
    <path d="M408.061,239.138 C408.834,247.615 405.236,253.345 396.719,255.988 C396.645,246.736 400.574,241.261 408.061,239.138" fill="#4B7F3D"/>
    <path d="M407.09,239.147 C412.938,242.958 414.802,248.189 412.172,255.017 C406.177,250.361 404.649,245.046 407.09,239.147" fill="#4B7F3D"/>
    <path d="M400.414,142.277 C405.893,135.763 412.495,134.284 420.368,138.477 C413.847,145.041 407.189,146.102 400.414,142.277" fill="#4B7F3D"/>
    <path d="M401.103,142.962 C399.696,136.123 402.101,131.118 408.802,128.181 C409.714,135.718 407.013,140.544 401.103,142.962" fill="#4B7F3D"/>
    <path d="M262.661,67.406 C262.117,58.912 265.867,53.279 274.453,50.866 C274.277,60.117 270.201,65.485 262.661,67.406" fill="#4B7F3D"/>
    <path d="M263.632,67.424 C257.887,63.455 256.165,58.176 258.979,51.421 C264.846,56.238 266.23,61.592 263.632,67.424" fill="#4B7F3D"/>
    <path d="M126.764,70.539 C123.803,62.56 118.084,58.94 109.26,60.232 C113.185,68.611 119.094,71.855 126.764,70.539" fill="#4B7F3D"/>
    <path d="M125.883,70.952 C129.515,64.988 128.938,59.466 123.62,54.44 C120.22,61.228 121.137,66.681 125.883,70.952" fill="#4B7F3D"/>
    <path d="M45.57,165.056 C42.188,157.245 36.284,153.936 27.542,155.698 C31.908,163.855 37.982,166.779 45.57,165.056" fill="#4B7F3D"/>
    <path d="M44.713,165.514 C48.022,159.366 47.151,153.882 41.572,149.148 C38.54,156.107 39.746,161.504 44.713,165.514" fill="#4B7F3D"/>
    <path d="M168.031,250.992 C162.766,257.781 162.708,264.613 168.516,271.492 C173.61,263.664 173.244,256.868 168.031,250.992" fill="#4B7F3D"/>
    <path d="M168.854,251.527 C161.806,251.589 157.377,255.026 155.901,262.262 C163.532,261.562 167.721,257.872 168.854,251.527" fill="#4B7F3D"/>
    <path d="M168.126,252.363 C171.18,260.393 176.98,264.002 185.878,262.627 C181.849,254.2 175.857,250.975 168.126,252.363" fill="#4B7F3D"/>
    <path d="M343.183,84.502 C350.336,79.744 352.567,73.287 349.254,64.916 C341.931,70.714 340.113,77.271 343.183,84.502" fill="#4B7F3D"/>
    <path d="M342.572,83.733 C349.273,85.919 354.565,84.073 358.271,77.684 C350.814,75.916 345.668,78.079 342.572,83.733" fill="#4B7F3D"/>
    <path d="M343.529,83.173 C343.194,74.587 338.844,69.319 329.973,67.788 C331.106,77.059 335.758,82.026 343.529,83.173" fill="#4B7F3D"/>
    <path d="M14.449,216.054 C14.367,215.851 12.479,219.246 12.751,220.362 C18.329,243.165 7.848,239.885 30.97,249.324 C57.662,260.22 53.139,251.453 60.449,244.736 C82.699,224.291 109.479,211.575 139.931,221.089 C164.936,228.901 170.965,226.908 194.457,227.62 C197.61,227.714 264.561,197.869 268.043,195.835 C268.043,195.773 274.891,186.614 269.43,183.809 C249.576,173.613 251.847,173.649 236.103,158.607 C230.294,153.057 209.287,133.143 202.62,132.795 C177.9,131.507 173.694,148.768 142.354,151.468 C76.528,157.136 99.383,186.671 58.518,185.895 C43.518,185.611 9.816,204.469 14.449,216.054 z M84.745,87.936 C109.867,95.571 105.618,90.709 123.973,109.698 C128.021,113.885 132.726,116.944 133.42,122.811 C134.997,136.156 131.665,142.19 116.302,143.569 C96.316,145.363 86.997,136.87 63.578,139.449 C28.206,143.344 46.436,118.974 60.559,103.958 C63.059,101.299 80.522,86.653 84.745,87.936 z M201.752,12.085 C206.109,12.403 219.899,28.825 222.621,34.252 C226.954,42.896 229.24,49.348 227.506,59.215 C226.685,63.88 223.94,66.874 221.2,69.338 C233.902,71.04 253.464,74.922 259.453,80.032 C262.076,82.271 274.338,100.843 268.64,103.161 C245.234,112.683 219.355,108.259 188.068,121.988 C181.135,125.032 144.608,133.322 144.608,118.296 C144.608,113.987 148.494,92.851 151.515,89.426 C161.795,77.769 158.836,83.287 165.548,68.434 C165.829,67.812 166.696,67.023 167.285,66.62 L170.912,65.26 L172.249,65.543 C171.962,65.226 171.671,64.905 171.366,64.579 C161.906,54.464 175.533,44.247 177.489,34.116 C179.718,22.573 185.954,20.672 192.682,14.557 C193.825,13.516 200.153,11.969 201.752,12.085 z M280.664,140.771 C306.446,110.051 355.718,166.848 377.042,166.848 C404.072,166.848 410.37,178.168 410.37,201.51 C410.37,219.411 414.534,216.099 389.948,217.072 C338.632,219.101 340.847,212.911 301.902,181.814 C286.596,169.593 277.035,181.61 277.035,154.499 C277.035,140.049 277.695,144.308 280.664,140.771" fill="#6B9F42"/>
    <path d="M360.433,163.518 C360.609,163.349 360.787,163.185 360.966,163.026 C360.778,156.757 363.776,152.484 370.337,150.444 C370.368,153.895 369.719,156.707 368.423,158.911 C372.305,158.043 376.387,159.016 380.686,161.962 C373.839,167.466 367.425,168.027 361.394,164.172 C361.277,164.207 361.16,164.242 361.042,164.276 L361.012,163.922 C360.818,163.792 360.625,163.657 360.433,163.518" fill="#6B9F42"/>
    <path d="M303.022,143.077 C303.022,142.833 303.028,142.591 303.036,142.351 C298.384,138.145 297.376,133.023 300.445,126.878 C302.958,129.245 304.537,131.661 305.231,134.122 C307.292,130.72 310.82,128.447 315.921,127.386 C315.153,136.136 311.115,141.153 304.159,142.836 C304.104,142.944 304.049,143.053 303.991,143.162 L303.715,142.938 C303.487,142.988 303.256,143.034 303.022,143.077" fill="#6B9F42"/>
    <path d="M250.113,173.308 C250.115,173.064 250.119,172.822 250.127,172.584 C245.476,168.378 244.467,163.255 247.537,157.109 C250.049,159.477 251.628,161.893 252.322,164.353 C254.383,160.951 257.913,158.678 263.012,157.617 C262.244,166.368 258.208,171.385 251.249,173.068 C251.196,173.176 251.14,173.285 251.082,173.393 L250.806,173.17 C250.579,173.22 250.349,173.265 250.113,173.308" fill="#6B9F42"/>
    <path d="M158.451,154.715 C158.45,154.47 158.445,154.228 158.438,153.99 C163.09,149.783 164.098,144.661 161.028,138.515 C158.517,140.883 156.937,143.299 156.243,145.76 C154.182,142.357 150.653,140.084 145.552,139.023 C146.32,147.774 150.357,152.791 157.314,154.474 C157.369,154.582 157.426,154.691 157.483,154.8 L157.758,154.576 C157.986,154.626 158.218,154.672 158.451,154.715" fill="#6B9F42"/>
    <path d="M155.663,87.14 C155.662,86.896 155.657,86.654 155.649,86.415 C160.301,82.209 161.31,77.087 158.239,70.942 C155.728,73.309 154.148,75.725 153.455,78.185 C151.394,74.783 147.865,72.511 142.764,71.448 C143.532,80.2 147.569,85.217 154.526,86.9 C154.581,87.008 154.637,87.117 154.694,87.225 L154.97,87.001 C155.198,87.052 155.43,87.097 155.663,87.14" fill="#6B9F42"/>
    <path d="M262.566,95.888 C262.788,95.783 263.003,95.675 263.216,95.565 C269.009,97.967 274.069,96.683 278.308,91.276 C275.091,90.02 272.231,89.628 269.712,90.056 C271.902,86.736 272.444,82.574 271.218,77.51 C263.64,81.953 260.836,87.751 262.298,94.759 C262.224,94.854 262.148,94.951 262.074,95.05 L262.395,95.203 C262.446,95.43 262.504,95.659 262.566,95.888" fill="#6B9F42"/>
    <path d="M227.906,110.74 C227.96,110.978 228.018,111.212 228.08,111.443 C224.474,116.574 224.624,121.793 228.978,127.107 C230.902,124.241 231.909,121.536 232.041,118.984 C234.803,121.845 238.748,123.281 243.958,123.187 C241.272,114.823 236.225,110.824 229.067,110.722 C228.989,110.63 228.911,110.535 228.831,110.442 L228.611,110.721 C228.378,110.722 228.142,110.73 227.906,110.74" fill="#6B9F42"/>
    <path d="M62.182,110.02 C61.954,109.93 61.73,109.838 61.51,109.744 C55.91,112.568 50.769,111.662 46.143,106.584 C49.257,105.094 52.079,104.492 54.624,104.732 C52.194,101.583 51.346,97.472 52.194,92.331 C60.08,96.201 63.305,101.776 62.366,108.872 C62.447,108.962 62.529,109.053 62.61,109.146 L62.302,109.322 C62.267,109.553 62.226,109.785 62.182,110.02" fill="#6B9F42"/>
    <path d="M200.754,22.286 C200.959,22.149 201.16,22.01 201.357,21.871 C207.485,23.46 212.363,21.466 215.842,15.466 C212.452,14.663 209.538,14.672 207.078,15.453 C208.803,11.826 208.761,7.589 206.826,2.699 C202.525,6.103 200.126,9.768 199.497,13.679 C197.477,9.353 193.545,6.607 187.544,5.571 C188.634,14.474 192.967,19.407 200.189,20.8 C200.234,20.93 200.279,21.062 200.326,21.193 C200.265,21.299 200.204,21.406 200.145,21.516 L200.486,21.624 C200.57,21.844 200.66,22.064 200.754,22.286" fill="#6B9F42"/>
    <path d="M122.195,213.576 C121.989,213.713 121.789,213.85 121.591,213.991 C115.462,212.402 110.585,214.395 107.106,220.395 C110.498,221.198 113.41,221.189 115.87,220.408 C114.146,224.035 114.188,228.272 116.124,233.162 C120.422,229.758 122.823,226.093 123.452,222.184 C125.473,226.51 129.404,229.256 135.405,230.29 C134.315,221.387 129.982,216.454 122.759,215.061 C122.715,214.929 122.67,214.8 122.623,214.668 C122.684,214.562 122.745,214.454 122.805,214.345 L122.463,214.239 C122.378,214.017 122.289,213.797 122.195,213.576" fill="#6B9F42"/>
    <path d="M339.183,203.217 C338.978,203.352 338.777,203.491 338.579,203.63 C332.451,202.041 327.573,204.036 324.095,210.034 C327.486,210.839 330.397,210.828 332.858,210.049 C331.134,213.675 331.176,217.912 333.111,222.801 C337.41,219.398 339.812,215.733 340.44,211.824 C342.46,216.149 346.392,218.895 352.393,219.931 C351.304,211.026 346.971,206.095 339.747,204.702 C339.702,204.571 339.658,204.439 339.611,204.309 C339.673,204.203 339.733,204.094 339.793,203.986 L339.451,203.878 C339.366,203.657 339.277,203.438 339.183,203.217" fill="#6B9F42"/>
    <path d="M317.744,408.708 L327.225,403.812 L319.117,412.655 L314.412,409.879 L317.744,408.708" fill="#852124"/>
    <path d="M303.971,412.351 L314.865,414.925 L302.054,415.264 L300.862,412.827 L303.971,412.351" fill="#852124"/>
    <path d="M231.043,376.908 L232.89,379.356 L237.539,375.5 L240.8,375.373 L246.723,365.976 L231.756,364.389 L230.962,361.328 L253.185,361.441 L246.041,381.169 L251.711,397.384 L245.701,404.865 L223.253,393.64 L199.328,374.821 L221.664,367.336 L222.798,370.171 L213.615,376.408 L224.24,382.244 L227.221,380.49 L225.181,373.8 L231.043,376.908" fill="#E16029"/>
    <path d="M231.043,376.908 L232.89,379.356 L233.315,380.518 L231.132,381.964 L227.221,380.49 L225.181,373.8 L231.043,376.908" fill="#E16029"/>
    <path d="M227.221,380.49 L231.132,381.964 L233.315,380.518 L232.89,379.356 L231.043,376.908 L225.181,373.8 L227.221,380.49" fill="#F7C995"/>
    <path d="M232.217,378.463 L231.043,376.908 L225.181,373.8 L226.409,377.827 C227.55,378.55 228.799,378.99 230.022,378.99 C230.827,378.99 231.56,378.8 232.217,378.463" fill="#E8B57D"/>
    <path d="M227.897,361.585 C231.873,361.585 235.096,364.808 235.096,368.784 C235.096,372.76 232.893,377.401 228.916,377.401 C224.941,377.401 220.695,372.76 220.695,368.784 C220.695,364.808 223.92,361.585 227.897,361.585" fill="#F7C995"/>
    <path d="M235.096,368.784 C234.713,367.432 234.727,366.232 233.737,365.694 C233.055,365.325 232.584,366.964 231.81,367 C230.316,367.066 228.775,365.299 227.445,365.978 C225.75,366.845 225.403,369.19 224.384,370.797 C221.248,367.838 220.235,368.171 221.636,372.242 C218.276,367.819 218.597,365.621 220.982,364.675 C221.157,361.038 235.59,355.435 235.096,368.784" fill="#FCE47E"/>
    <path d="M251.711,397.384 L280.056,404.664 L318.153,407.84 L316.395,411.581 L276.938,410.844 L252.675,410.617 L247.978,402.033 L251.711,397.384" fill="#284A6F"/>
    <path d="M245.701,404.865 L250.407,412.432 L258.174,413.339 L284.252,399.11 L300.749,413.849 L304.773,411.979 L286.803,392.93 L260.272,401.718 L250.251,399.2 L245.701,404.865" fill="#365E88"/>
  </g>
</svg>
