<svg id="visual" viewBox="0 0 960 540" width="960" height="540" xmlns="http://www.w3.org/2000/svg" xmlns:xlink="http://www.w3.org/1999/xlink" version="1.1"><rect x="0" y="0" width="960" height="540" fill="#dfd2b9"></rect><path d="M0 56L26.7 61.5C53.3 67 106.7 78 160 81C213.3 84 266.7 79 320 73.8C373.3 68.7 426.7 63.3 480 68.5C533.3 73.7 586.7 89.3 640 97.2C693.3 105 746.7 105 800 112.7C853.3 120.3 906.7 135.7 933.3 143.3L960 151L960 0L933.3 0C906.7 0 853.3 0 800 0C746.7 0 693.3 0 640 0C586.7 0 533.3 0 480 0C426.7 0 373.3 0 320 0C266.7 0 213.3 0 160 0C106.7 0 53.3 0 26.7 0L0 0Z" fill="#2F4858" stroke-linecap="round" stroke-linejoin="miter"></path></svg>